<svg width="22" height="23" viewBox="0 0 22 23" fill="none" xmlns="http://www.w3.org/2000/svg">
<g clip-path="url(#clip0_2001_368)">
<g clip-path="url(#clip1_2001_368)">
<path d="M9.71174 23C9.45452 22.9286 9.1899 22.8788 8.94184 22.7822C7.79615 22.3357 7.06026 21.4983 6.73678 20.2787C6.72544 20.2356 6.71106 20.1929 6.69057 20.125C6.6182 20.125 6.54147 20.125 6.46431 20.125C5.11982 20.125 3.77577 20.1318 2.43129 20.1219C1.49399 20.1152 0.768557 19.3111 0.821308 18.3511C0.847465 17.8722 1.04975 17.4778 1.40113 17.162C2.85896 15.8512 3.58831 14.1945 3.60575 12.2044C3.61316 11.3585 3.60619 10.5127 3.60706 9.66679C3.61098 6.22712 5.94247 3.43882 9.24526 2.94018C9.62411 2.88313 10.0134 2.87954 10.3971 2.88628C10.8173 2.89346 11.0998 3.14233 11.1491 3.49632C11.2158 3.97473 10.8696 4.34759 10.3814 4.32198C9.43796 4.27257 8.54076 4.46079 7.71811 4.93741C5.98912 5.93917 5.07448 7.47145 5.00735 9.5163C4.97814 10.4062 5.00735 11.2979 5.00081 12.1887C4.9825 14.588 4.10972 16.5933 2.37549 18.1975C2.27696 18.2886 2.16448 18.3735 2.23206 18.5353C2.29571 18.688 2.42737 18.6893 2.56338 18.6893C7.5991 18.6884 12.6348 18.6893 17.6705 18.6822C17.7808 18.6822 17.9299 18.6175 17.9931 18.5308C18.093 18.3933 17.96 18.2895 17.861 18.1988C16.3343 16.7972 15.4585 15.0489 15.271 12.9515C15.2178 12.3572 15.2388 11.7548 15.2453 11.1564C15.2492 10.8087 15.5221 10.5369 15.8526 10.505C16.2131 10.47 16.5275 10.6874 16.6016 11.0423C16.6316 11.1865 16.6316 11.3392 16.6312 11.4884C16.6286 12.2745 16.6212 13.0593 16.8174 13.8297C17.1517 15.1419 17.8065 16.2483 18.8023 17.1355C19.3581 17.6305 19.5586 18.3345 19.3211 19.015C19.0852 19.6907 18.484 20.1228 17.759 20.125C16.422 20.1286 15.0849 20.1282 13.7478 20.1233C13.5948 20.1228 13.5324 20.1592 13.4832 20.3263C13.0503 21.8024 12.0964 22.6883 10.6168 22.9619C10.5754 22.9695 10.5357 22.9884 10.4951 23.0018H9.71043L9.71174 23ZM8.17717 20.1358C8.35286 20.9619 9.33027 21.6223 10.268 21.5576C11.0907 21.501 11.9979 20.776 12.0463 20.1358H8.17717Z" fill="#FFF9EB"/>
<path d="M17.0802 0C17.3553 0.0610938 17.6348 0.107812 17.905 0.185977C20.0399 0.802305 21.4206 2.8759 21.2628 5.21902C21.1176 7.37527 19.403 9.23504 17.2869 9.53107C14.3686 9.93986 11.8505 7.56844 11.983 4.53531C12.082 2.26541 13.8328 0.318945 16.0222 0.0422266C16.0705 0.0359375 16.1172 0.014375 16.1643 0C16.4694 0 16.7746 0 17.0798 0L17.0802 0ZM16.629 8.14164C18.4225 8.14254 19.8729 6.65562 19.8808 4.80844C19.8882 2.95092 18.4391 1.44334 16.6408 1.43795C14.8438 1.43211 13.3768 2.93564 13.3742 4.78553C13.3715 6.639 14.8285 8.14119 16.629 8.14164Z" fill="#FFF9EB"/>
<path d="M16.6291 8.1417C14.8286 8.1408 13.3717 6.63861 13.3743 4.78558C13.3769 2.9357 14.8439 1.43217 16.6409 1.43801C18.4392 1.44385 19.8887 2.95142 19.8809 4.80849C19.8735 6.65568 18.4231 8.1426 16.6291 8.1417Z" fill="#023047"/>
</g>
</g>
<defs>
<clipPath id="clip0_2001_368">
<rect width="20.4563" height="23" fill="white" transform="translate(0.818848)"/>
</clipPath>
<clipPath id="clip1_2001_368">
<rect width="20.4564" height="23.0018" fill="white" transform="translate(0.818604)"/>
</clipPath>
</defs>
</svg>
