<svg width="32" height="29" viewBox="0 0 32 23" fill="none" xmlns="http://www.w3.org/2000/svg">
<path d="M31.7168 19.1885C31.7343 18.8369 31.8951 17.8548 31.8901 17.6639C31.8725 15.2174 30.3202 7.15446 30.0715 5.19022L30.0565 5.06965C29.9711 4.29853 29.9384 3.38171 29.6546 2.65329C29.3682 1.91984 28.4414 1.66363 27.7732 1.40492C25.0077 0.349956 21.8855 -0.539226 18.9517 0.390145C17.8064 0.751846 16.774 1.39738 15.9451 2.41467C15.1187 1.39738 14.0838 0.751846 12.941 0.390145C10.0072 -0.539226 6.88499 0.349956 4.11949 1.40492C3.45134 1.66112 2.51946 1.91733 2.23563 2.65329C1.95179 3.38171 1.91914 4.29601 1.83374 5.06965L1.81867 5.19022C1.57 7.15446 0.020208 15.2174 0.000113536 17.6639C-0.00491009 17.8573 0.158358 18.8369 0.17594 19.1885C0.201059 19.6959 0.140775 20.2058 0.165893 20.7107C0.115657 20.8865 0.16087 21.0523 0.268877 21.1829C0.339208 21.3186 0.447216 21.4015 0.565271 21.4442C0.834035 21.7405 1.32133 21.5446 1.64033 21.4442C4.49877 20.5198 7.64105 20.555 10.5899 20.9468C11.1124 21.0146 11.6323 21.1 12.1497 21.2005C12.6873 21.306 13.1972 21.4969 13.7121 21.6803C14.1366 21.831 14.5812 21.9566 15.0283 22.042C15.3498 22.1148 15.6638 22.1449 15.8069 22.1475C15.8572 22.1475 15.9024 22.1424 15.9501 22.1399C15.9978 22.1399 16.0456 22.1475 16.0933 22.1475C16.2365 22.1475 16.5504 22.1173 16.872 22.042C17.3191 21.9566 17.7636 21.831 18.1881 21.6803C18.7031 21.4969 19.2155 21.306 19.753 21.2005C20.2704 21.1 20.7904 21.0146 21.3128 20.9468C24.2592 20.555 27.404 20.5198 30.2624 21.4442C30.5789 21.5471 31.0662 21.7405 31.335 21.4442C31.4555 21.4015 31.561 21.3186 31.6314 21.1829C31.7394 21.0523 31.7846 20.8865 31.7343 20.7107C31.7519 20.2033 31.6916 19.6959 31.7168 19.1885ZM8.99994 15.9056C7.84701 15.8679 6.69158 15.9257 5.55122 16.0865C4.57161 16.2246 3.60456 16.4431 2.66263 16.737C2.43406 16.8073 2.17785 16.8651 1.96184 16.9731C1.82369 17.0435 1.71066 17.1238 1.58758 16.9706C1.41678 16.7646 1.52981 16.3904 1.55744 16.1543C1.6127 15.6795 1.67549 15.2073 1.74833 14.7351C2.06482 12.6327 2.48932 10.5504 2.77818 8.44302C2.90377 7.51113 3.00675 6.57172 3.12732 5.63983C3.1876 5.16008 3.25542 4.68032 3.33329 4.20308C3.42874 3.61782 3.44883 3.20589 3.99641 2.85172C4.92829 2.24889 6.04605 1.98263 7.11357 1.72392C8.26398 1.44511 9.41187 1.209 10.6025 1.25421C11.4364 1.28686 12.2477 1.5079 12.9837 1.89723C13.3403 2.08562 13.682 2.30666 14.006 2.5503C14.3275 2.78893 14.7193 3.04513 14.9755 3.35157C15.2041 3.62285 15.277 3.86901 15.2996 4.15033C15.1413 7.74975 15.1664 16.6742 15.1941 17.3072C15.1966 17.3599 15.2016 17.4127 15.2041 17.4654C15.1916 17.5333 15.1539 17.586 15.0434 17.586C14.9102 17.5885 14.7645 17.5006 14.649 17.4403C14.4104 17.3147 14.1692 17.1942 13.9281 17.0811C12.3683 16.3452 10.7256 15.9609 8.99994 15.9056ZM30.2976 16.9681C30.172 17.1213 30.0615 17.0409 29.9233 16.9706C29.7098 16.8626 29.4536 16.8048 29.2225 16.7345C28.2806 16.4406 27.3136 16.2246 26.334 16.0839C25.1936 15.9232 24.0356 15.8679 22.8827 15.9031C21.1596 15.9584 19.5169 16.3427 17.9545 17.0786C17.7134 17.1942 17.4723 17.3147 17.2337 17.4378C17.1181 17.4981 16.9724 17.5835 16.8368 17.5835C16.7263 17.5835 16.6886 17.5308 16.676 17.4629C16.6785 17.4102 16.6861 17.3574 16.6861 17.3047C16.7137 16.6717 16.7413 7.74724 16.5806 4.14782C16.6032 3.86649 16.676 3.62034 16.9021 3.34906C17.1633 3.04262 17.5527 2.7839 17.8742 2.54779C18.1982 2.30666 18.5373 2.08311 18.8965 1.89472C19.6349 1.50539 20.4438 1.28435 21.2777 1.2517C22.4683 1.20397 23.6162 1.44259 24.7666 1.72141C25.8341 1.98012 26.9519 2.24386 27.8863 2.84921C28.4338 3.20337 28.4539 3.61531 28.5494 4.20056C28.6272 4.67781 28.6951 5.15756 28.7553 5.63732C28.8734 6.57171 28.9764 7.50862 29.1045 8.4405C29.3933 10.5454 29.8203 12.6302 30.1343 14.7326C30.2021 15.2048 30.27 15.677 30.3252 16.1518C30.3554 16.3879 30.4684 16.7621 30.2976 16.9681Z" fill="#BCBCBC"/>
<path d="M13.1971 4.06488C10.8184 2.94963 7.61336 2.88935 5.2196 4.03474C4.58663 4.33867 5.13922 5.25548 5.76718 4.97164C7.80426 4.04227 10.5974 4.18293 12.5742 5.12989C13.2875 5.46898 13.913 4.40146 13.1971 4.06488ZM13.1218 7.0037C10.5899 5.89348 7.33455 5.474 4.78004 6.79019C4.22492 7.07654 4.71222 7.86023 5.2623 7.61407C7.60582 6.56664 10.414 7.18204 12.6922 8.02601C13.2825 8.24704 13.702 7.25739 13.1218 7.0037ZM12.9886 9.93498C12.7199 9.70892 12.3456 9.60342 12.0216 9.48537C9.67053 8.62633 6.54835 8.59116 4.29023 9.7466C3.79289 10.0003 4.21237 10.7237 4.70217 10.583C5.93296 10.2339 7.0909 10.0405 8.36941 10.0279C9.37163 10.0179 10.2809 10.1234 11.2379 10.4097C11.5268 10.4951 11.8031 10.5278 12.0794 10.6584C12.2778 10.7513 12.524 10.8694 12.7425 10.897C13.2197 10.9548 13.3177 10.254 13.0489 9.98773L12.9886 9.93498ZM12.74 12.7658C10.0222 11.4848 6.97285 11.7209 4.22241 12.6904C3.65474 12.8914 3.92602 13.7655 4.50374 13.5846C5.79732 13.1777 6.87489 12.8738 8.24885 12.8562C9.57006 12.8411 11.0043 13.2732 12.215 13.7479C12.8656 14.0066 13.4006 13.0773 12.74 12.7658ZM19.3109 5.12737C21.2877 4.18042 24.0808 4.04227 26.1179 4.96913C26.7433 5.25548 27.2984 4.33615 26.6655 4.03222C24.2742 2.88684 21.0691 2.94712 18.6905 4.06237C17.9721 4.40146 18.595 5.46898 19.3109 5.12737ZM19.1953 8.02601C21.4735 7.18204 24.2817 6.56664 26.6253 7.61407C27.1754 7.86023 27.6626 7.07654 27.1075 6.79019C24.5505 5.474 21.2952 5.89348 18.7658 7.0037C18.1856 7.25739 18.6025 8.24704 19.1953 8.02601ZM19.1426 10.8995C19.3636 10.8719 19.6048 10.7538 19.8032 10.6609C20.082 10.5303 20.3583 10.4976 20.6472 10.4122C21.6042 10.1284 22.5134 10.0229 23.5156 10.0304C24.7942 10.0405 25.9546 10.2339 27.1854 10.5855C27.6727 10.7262 28.0922 10.0003 27.5973 9.74911C25.3392 8.59367 22.2145 8.62884 19.866 9.48788C19.542 9.60593 19.1677 9.70892 18.8964 9.93749L18.8361 9.99275C18.5649 10.254 18.6678 10.9573 19.1426 10.8995ZM27.6652 12.6904C24.9147 11.7209 21.8654 11.4848 19.1476 12.7658C18.487 13.0773 19.022 14.0066 19.6751 13.7479C20.8833 13.2732 22.315 12.8411 23.6387 12.8562C25.0102 12.8738 26.0903 13.1777 27.3813 13.5846C27.9615 13.768 28.2328 12.8914 27.6652 12.6904Z" fill="#BCBCBC"/>
</svg>
