<svg width="24" height="24" viewBox="0 0 24 24" fill="none" xmlns="http://www.w3.org/2000/svg">
<circle cx="12.4755" cy="12.4753" r="10.5246" fill="#F8F8F8" stroke="#FFB703" stroke-width="2"/>
<path d="M9.04927 9.67212H8.42632C8.09589 9.67212 7.77899 9.80338 7.54534 10.037C7.31168 10.2707 7.18042 10.5876 7.18042 10.918V16.5246C7.18042 16.855 7.31168 17.1719 7.54534 17.4056C7.77899 17.6392 8.09589 17.7705 8.42632 17.7705H14.0329C14.3633 17.7705 14.6802 17.6392 14.9139 17.4056C15.1475 17.1719 15.2788 16.855 15.2788 16.5246V15.9016" stroke="#FFB703" stroke-width="2" stroke-linecap="round" stroke-linejoin="round"/>
<path d="M14.6558 8.42639L16.5247 10.2952M17.3875 9.41377C17.6328 9.16842 17.7706 8.83566 17.7706 8.48868C17.7706 8.14171 17.6328 7.80895 17.3875 7.5636C17.1421 7.31825 16.8094 7.18042 16.4624 7.18042C16.1154 7.18042 15.7826 7.31825 15.5373 7.5636L10.2952 12.787V14.6559H12.164L17.3875 9.41377Z" stroke="#FFB703" stroke-width="2" stroke-linecap="round" stroke-linejoin="round"/>
</svg>
