<svg width="20" height="20" viewBox="0 0 20 20" fill="none" xmlns="http://www.w3.org/2000/svg">
<path d="M8.99491 2.68V6.56C8.99491 6.88127 8.93147 7.19938 8.80823 7.49606C8.68498 7.79275 8.50436 8.06218 8.27672 8.28889C8.04908 8.51559 7.77892 8.69511 7.48173 8.81714C7.18454 8.93918 6.86618 9.00132 6.54491 9H2.68491C2.36451 9.00194 2.04702 8.93917 1.75147 8.81545C1.45591 8.69173 1.18838 8.50961 0.964911 8.28C0.738478 8.05467 0.559103 7.78657 0.437214 7.49129C0.315326 7.19601 0.253357 6.87944 0.254911 6.56V2.69C0.254906 2.0446 0.510603 1.42549 0.966031 0.968185C1.42146 0.510883 2.03952 0.252645 2.68491 0.25H6.55491C6.87498 0.250308 7.1918 0.314103 7.48704 0.437692C7.78228 0.561281 8.05007 0.742209 8.27491 0.97C8.50285 1.19264 8.68397 1.45862 8.80762 1.75228C8.93127 2.04594 8.99495 2.36137 8.99491 2.68ZM19.7449 2.69V6.56C19.7397 7.2038 19.4824 7.81991 19.028 8.27609C18.5737 8.73227 17.9587 8.99217 17.3149 9H13.4349C12.7881 8.99604 12.168 8.74155 11.7049 8.29C11.4786 8.06249 11.2994 7.79258 11.1776 7.49572C11.0558 7.19886 10.9937 6.88088 10.9949 6.56V2.69C10.9935 2.36969 11.0566 2.05236 11.1803 1.75689C11.3039 1.46141 11.4858 1.19382 11.7149 0.97C11.9397 0.742209 12.2075 0.561281 12.5028 0.437692C12.798 0.314103 13.1148 0.250308 13.4349 0.25H17.3049C17.9504 0.255227 18.568 0.513976 19.0245 0.970437C19.4809 1.4269 19.7397 2.04449 19.7449 2.69ZM19.7449 13.44V17.31C19.7397 17.9538 19.4824 18.5699 19.028 19.0261C18.5737 19.4823 17.9587 19.7422 17.3149 19.75H13.4349C12.784 19.7566 12.1562 19.5091 11.6849 19.06C11.4577 18.8331 11.278 18.5634 11.1561 18.2664C11.0342 17.9693 10.9726 17.651 10.9749 17.33V13.46C10.9736 13.1397 11.0367 12.8224 11.1603 12.5269C11.284 12.2315 11.4658 11.9639 11.6949 11.74C11.9198 11.5123 12.1876 11.3314 12.4828 11.2078C12.778 11.0842 13.0949 11.0204 13.4149 11.02H17.2849C17.9304 11.0252 18.548 11.284 19.0045 11.7404C19.4609 12.1969 19.7197 12.8145 19.7249 13.46L19.7449 13.44ZM8.99491 13.45V17.32C8.98704 17.9655 8.72577 18.582 8.26743 19.0366C7.8091 19.4912 7.19045 19.7474 6.54491 19.75H2.68491C2.36543 19.7513 2.04885 19.6894 1.75343 19.5677C1.45801 19.4461 1.1896 19.2671 0.963692 19.0412C0.737782 18.8153 0.55884 18.5469 0.43719 18.2515C0.315539 17.9561 0.253588 17.6395 0.254911 17.32V13.45C0.257488 12.8045 0.513704 12.1858 0.968295 11.7275C1.42289 11.2691 2.03942 11.0079 2.68491 11H6.55491C7.20333 11.0056 7.82399 11.2639 8.28491 11.72C8.741 12.1801 8.99629 12.8021 8.99491 13.45Z" fill="#FFB703"/>
</svg>
