<svg width="12" height="14" viewBox="0 0 12 14" fill="none" xmlns="http://www.w3.org/2000/svg">
<path d="M6 0C7.5913 0 9.11742 0.658273 10.2426 1.83001C11.3679 3.00174 12 4.59095 12 6.24804C12 8.38209 10.8827 10.1288 9.70533 11.3818C9.11701 12.001 8.47519 12.5625 7.788 13.0591L7.504 13.2604L7.37067 13.3527L7.11933 13.5194L6.89533 13.6617L6.618 13.8297C6.42967 13.9413 6.2167 14 6 14C5.7833 14 5.57033 13.9413 5.382 13.8297L5.10467 13.6617L4.758 13.4395L4.63 13.3527L4.35667 13.1632C3.61532 12.6407 2.92471 12.0441 2.29467 11.3818C1.11733 10.1281 0 8.38209 0 6.24804C0 4.59095 0.632141 3.00174 1.75736 1.83001C2.88258 0.658273 4.4087 0 6 0ZM6 4.16536C5.73736 4.16536 5.47728 4.21923 5.23463 4.32389C4.99198 4.42856 4.7715 4.58197 4.58579 4.77536C4.40007 4.96875 4.25275 5.19835 4.15224 5.45103C4.05173 5.70371 4 5.97453 4 6.24804C4 6.52154 4.05173 6.79236 4.15224 7.04504C4.25275 7.29773 4.40007 7.52732 4.58579 7.72071C4.7715 7.91411 4.99198 8.06752 5.23463 8.17218C5.47728 8.27684 5.73736 8.33072 6 8.33072C6.53043 8.33072 7.03914 8.11129 7.41421 7.72071C7.78929 7.33013 8 6.8004 8 6.24804C8 5.69568 7.78929 5.16594 7.41421 4.77536C7.03914 4.38478 6.53043 4.16536 6 4.16536Z" fill="#BCBCBC"/>
</svg>
