<svg width="30" height="23" viewBox="0 0 30 23" fill="none" xmlns="http://www.w3.org/2000/svg">
<g clip-path="url(#clip0_2001_384)">
<path d="M14.5835 13.1182C10.4349 13.1182 6.28628 13.1182 2.13765 13.1158C1.86786 13.1158 1.59007 13.1205 1.32942 13.0618C0.469743 12.8682 -0.0641257 12.069 0.00560869 11.1243C0.0799159 10.122 0.691521 9.46367 1.61636 9.39677C1.80041 9.38386 1.98675 9.38504 2.17195 9.38504C10.4692 9.38504 18.7665 9.38504 27.0637 9.38621C27.3335 9.38621 27.6102 9.37917 27.8731 9.43433C28.7339 9.61506 29.2781 10.4096 29.2186 11.3555C29.1557 12.3553 28.5453 13.0301 27.6284 13.1029C27.4295 13.1182 27.2295 13.117 27.0306 13.117C22.8819 13.117 18.7333 13.117 14.5847 13.117L14.5835 13.1182Z" fill="#FFB703"/>
<path d="M9.13295 22.4997C6.72425 22.4997 4.31556 22.5044 1.90686 22.4974C0.556757 22.4939 -0.222897 21.494 0.0617565 20.135C0.211514 19.4238 0.647069 18.9779 1.33641 18.8136C1.5559 18.7607 1.78797 18.7455 2.01432 18.7455C6.76084 18.742 11.5074 18.7408 16.2527 18.7443C17.6943 18.7443 18.4808 19.6973 18.2099 21.0926C18.0407 21.9622 17.3696 22.495 16.4002 22.4974C13.9766 22.5033 11.5542 22.4997 9.13066 22.4997H9.13295Z" fill="#FFB703"/>
<path d="M20.0708 0.0024125C22.4795 0.0024125 24.8882 -0.00110822 27.2969 0.00358607C28.6596 0.00593321 29.4324 0.983518 29.1649 2.34721C29.0277 3.04666 28.5418 3.55951 27.8616 3.69095C27.6113 3.73906 27.3518 3.75549 27.0968 3.75549C22.4223 3.75901 17.7467 3.76019 13.0722 3.75315C12.7624 3.75315 12.4389 3.73085 12.1439 3.64283C11.314 3.39521 10.8476 2.54906 10.979 1.59964C11.1162 0.624405 11.7541 0.0188425 12.7167 0.00945392C14.4269 -0.00697607 16.1371 0.00358607 17.8473 0.00358607C18.5881 0.00358607 19.33 0.00358607 20.0708 0.00358607V0.0024125Z" fill="#FFB703"/>
</g>
<defs>
<clipPath id="clip0_2001_384">
<rect width="29.2233" height="22.5009" fill="white"/>
</clipPath>
</defs>
</svg>
