<svg width="24" height="23" viewBox="0 0 24 23" fill="none" xmlns="http://www.w3.org/2000/svg">
<path d="M22.3387 4.20414L12.0942 0.852066C11.8319 0.765132 11.5477 0.765132 11.2853 0.852066L1.04081 4.20414C0.796369 4.28361 0.58201 4.43358 0.425718 4.63446C0.269425 4.83535 0.178459 5.07782 0.164694 5.33023C0.163526 5.35221 0.163526 5.37424 0.164694 5.39622V13.7764C0.164694 14.1098 0.29961 14.4295 0.539763 14.6653C0.779915 14.901 1.10563 15.0334 1.44526 15.0334C1.78488 15.0334 2.1106 14.901 2.35075 14.6653C2.59091 14.4295 2.72582 14.1098 2.72582 13.7764V7.14035L5.256 7.96789C4.47076 9.44333 4.23741 11.1423 4.59657 12.7692C4.95572 14.3961 5.88465 15.8479 7.22167 16.8718C5.47202 17.7188 3.99126 19.0187 2.93925 20.6314C2.84451 20.7696 2.77871 20.9249 2.74566 21.0883C2.71262 21.2517 2.71299 21.42 2.74675 21.5832C2.78052 21.7465 2.847 21.9015 2.94235 22.0393C3.03769 22.1771 3.15999 22.295 3.30213 22.386C3.44428 22.477 3.60343 22.5394 3.77035 22.5695C3.93726 22.5996 4.10861 22.5968 4.27442 22.5613C4.44024 22.5258 4.59722 22.4584 4.73623 22.3628C4.87525 22.2672 4.99352 22.1455 5.08419 22.0047C6.607 19.7043 9.02193 18.3855 11.6898 18.3855C14.3576 18.3855 16.7725 19.7043 18.3007 22.0047C18.3914 22.1455 18.5096 22.2672 18.6486 22.3628C18.7877 22.4584 18.9446 22.5258 19.1105 22.5613C19.2763 22.5968 19.4476 22.5996 19.6145 22.5695C19.7814 22.5394 19.9406 22.477 20.0827 22.386C20.2249 22.295 20.3472 22.1771 20.4425 22.0393C20.5379 21.9015 20.6044 21.7465 20.6381 21.5832C20.6719 21.42 20.6723 21.2517 20.6392 21.0883C20.6062 20.9249 20.5404 20.7696 20.4456 20.6314C19.3926 19.0169 17.9099 17.7157 16.1579 16.8687C17.4949 15.8447 18.4238 14.393 18.783 12.7661C19.1421 11.1392 18.9088 9.44018 18.1235 7.96475L22.3387 6.58516C22.5934 6.50153 22.8148 6.34143 22.9717 6.12751C23.1286 5.91359 23.213 5.65667 23.213 5.39308C23.213 5.12949 23.1286 4.87257 22.9717 4.65865C22.8148 4.44472 22.5934 4.28463 22.3387 4.201V4.20414ZM11.6898 3.36612L17.8845 5.39622L11.6898 7.42318L5.50038 5.39622L11.6898 3.36612ZM16.3852 11.2624C16.3853 11.9783 16.2156 12.6844 15.8894 13.3247C15.5632 13.965 15.0895 14.5219 14.5059 14.9513C13.9223 15.3807 13.2449 15.6707 12.5273 15.7984C11.8096 15.9261 11.0716 15.8879 10.3716 15.687C9.67161 15.486 9.02894 15.1277 8.49454 14.6405C7.96014 14.1533 7.54869 13.5507 7.29282 12.8803C7.03695 12.2098 6.94369 11.4901 7.02044 10.7782C7.09718 10.0663 7.34182 9.38167 7.73496 8.77868L11.2853 9.94038C11.5477 10.027 11.8318 10.027 12.0942 9.94038L15.6446 8.77868C16.1288 9.51978 16.3859 10.3819 16.3852 11.2624Z" fill="#023047"/>
</svg>
