<svg width="26" height="25" viewBox="0 0 26 25" fill="none" xmlns="http://www.w3.org/2000/svg">
<mask id="mask0_2001_406" style="mask-type:luminance" maskUnits="userSpaceOnUse" x="0" y="-1" width="26" height="26">
<path d="M9.77626 22.9312C7.9754 22.3935 6.34444 21.3988 5.04213 20.0437C5.46114 19.5467 5.72234 18.936 5.79231 18.2898C5.86228 17.6435 5.73782 16.9911 5.43488 16.4159C5.13194 15.8408 4.66428 15.3691 4.09176 15.0613C3.51923 14.7534 2.86787 14.6234 2.22103 14.6879C2.07367 13.966 1.99962 13.2312 2 12.4945C2 11.3567 2.17421 10.2591 2.49867 9.22804H2.5444C3.09956 9.22822 3.64561 9.0869 4.13098 8.81743C4.61635 8.54795 5.02503 8.15921 5.31843 7.68792C5.61183 7.21663 5.78027 6.67833 5.80784 6.12386C5.83541 5.56938 5.72121 5.01703 5.47602 4.51895C6.75242 3.33043 8.29606 2.46646 9.9766 2C10.2501 2.537 10.6668 2.98787 11.1807 3.30273C11.6945 3.61759 12.2854 3.78416 12.8881 3.78401C13.4907 3.78416 14.0816 3.61759 14.5955 3.30273C15.1093 2.98787 15.526 2.537 15.7995 2C17.4801 2.46646 19.0237 3.33043 20.3001 4.51895C20.0531 5.02052 19.939 5.57708 19.9687 6.13537C19.9984 6.69366 20.1709 7.23499 20.4696 7.70754C20.7684 8.18009 21.1835 8.56804 21.6751 8.83427C22.1667 9.10049 22.7184 9.23608 23.2775 9.22804C23.609 10.2851 23.7771 11.3866 23.7761 12.4945C23.7761 13.2457 23.6999 13.9796 23.5551 14.6884C22.9083 14.624 22.2569 14.754 21.6844 15.0618C21.1119 15.3697 20.6442 15.8413 20.3413 16.4165C20.0383 16.9916 19.9139 17.644 19.9838 18.2903C20.0538 18.9366 20.315 19.5473 20.734 20.0442C19.4316 21.3991 17.8007 22.3937 15.9999 22.9312C15.7884 22.2721 15.3731 21.6972 14.8139 21.2893C14.2546 20.8814 13.5803 20.6616 12.8881 20.6616C12.1959 20.6616 11.5215 20.8814 10.9623 21.2893C10.403 21.6972 9.98773 22.2721 9.77626 22.9312Z" fill="white" stroke="white" stroke-width="4" stroke-linejoin="round"/>
<path d="M12.8882 16.3052C13.3887 16.3052 13.8842 16.2067 14.3466 16.0152C14.8089 15.8236 15.229 15.5429 15.5829 15.1891C15.9367 14.8352 16.2174 14.4151 16.409 13.9528C16.6005 13.4904 16.699 12.9949 16.699 12.4944C16.699 11.994 16.6005 11.4984 16.409 11.0361C16.2174 10.5737 15.9367 10.1536 15.5829 9.79976C15.229 9.44589 14.8089 9.16519 14.3466 8.97368C13.8842 8.78216 13.3887 8.68359 12.8882 8.68359C11.8775 8.68359 10.9082 9.08509 10.1936 9.79976C9.47889 10.5144 9.07739 11.4837 9.07739 12.4944C9.07739 13.5051 9.47889 14.4744 10.1936 15.1891C10.9082 15.9037 11.8775 16.3052 12.8882 16.3052Z" fill="black" stroke="black" stroke-width="4" stroke-linejoin="round"/>
</mask>
<g mask="url(#mask0_2001_406)">
<path d="M-0.17749 -0.571045H25.9539V25.5603H-0.17749V-0.571045Z" fill="#BCBCBC"/>
</g>
</svg>
